<svg xmlns="http://www.w3.org/2000/svg" xmlns:xlink="http://www.w3.org/1999/xlink" viewBox="0 0 124.36 200"><defs><style>.cls-1{fill:url(#linear-gradient);}.cls-2{fill:url(#linear-gradient-2);}</style><linearGradient id="linear-gradient" x1="77.79" y1="123.87" x2="20.2" y2="24.12" gradientUnits="userSpaceOnUse"><stop offset="0" stop-color="#1192e8"/><stop offset="1" stop-color="#8a3ffc"/></linearGradient><linearGradient id="linear-gradient-2" x1="100.76" y1="177.79" x2="46.31" y2="83.48" gradientUnits="userSpaceOnUse"><stop offset="0" stop-color="#8a3ffc"/><stop offset="1" stop-color="#1192e8"/></linearGradient></defs><title>ethernal</title><g id="Layer_2" data-name="Layer 2"><g id="bolder-logo"><polygon class="cls-1" points="124.33 97.01 108.17 106.31 95.28 113.75 61.52 133.21 36.13 118.31 48.62 110.83 61.68 118.5 82.73 106.36 95.63 98.93 106.01 92.94 62.01 24.47 24.78 82.55 0.03 96.66 61.98 0 124.33 97.01"/><polygon class="cls-2" points="124.36 111.14 62.3 200 0 110.79 15.94 101.44 28.57 94.03 62.3 74.25 88.32 89.58 75.34 96.97 62.49 89.41 41.59 101.67 28.96 109.08 18.53 115.2 62.49 178.16 99.38 125.35 124.36 111.14"/></g></g></svg>